<svg width="26" height="25" viewBox="0 0 26 25" fill="none" xmlns="http://www.w3.org/2000/svg">
<path d="M20.2969 11.25C17.1879 11.25 14.6719 13.766 14.6719 16.875C14.6719 19.984 17.1879 22.5 20.2969 22.5C23.4059 22.5 25.9219 19.984 25.9219 16.875C25.9219 13.766 23.4059 11.25 20.2969 11.25ZM22.7969 17.1207C22.7969 17.3293 22.6262 17.5 22.4176 17.5H20.0516C19.843 17.5 19.6723 17.3293 19.6723 17.1207V14.1297C19.6723 13.9211 19.843 13.7504 20.0516 13.7504H20.5426C20.7512 13.7504 20.9219 13.9211 20.9219 14.1297V16.25H22.4176C22.6262 16.25 22.7969 16.4207 22.7969 16.6293V17.1207ZM20.2969 10C20.5078 10 20.7156 10.0129 20.9219 10.0316V8.125C20.9219 7.125 20.0469 6.25 19.0469 6.25H15.9219V4.375C15.9219 3.375 15.0469 2.5 14.0469 2.5H7.79688C6.79688 2.5 5.92188 3.375 5.92188 4.375V6.25H2.79688C1.79688 6.25 0.921875 7.125 0.921875 8.125V11.25H16.3562C17.4734 10.4652 18.8309 10 20.2969 10ZM13.4219 6.25H8.42188V5H13.4219V6.25ZM13.6883 15H9.04688C8.70156 15 8.42188 14.7203 8.42188 14.375V12.5H0.921875V18.125C0.921875 19.125 1.79688 20 2.79688 20H14.1809C13.6992 19.0609 13.4219 18.0008 13.4219 16.875C13.4219 16.2242 13.5188 15.5969 13.6883 15Z" fill="#262626"/>
</svg>
