<svg width="26" height="25" viewBox="0 0 26 25" fill="none" xmlns="http://www.w3.org/2000/svg">
<path d="M24.709 12.5C24.709 19.1893 19.287 24.6094 12.5996 24.6094C5.91226 24.6094 0.490234 19.1893 0.490234 12.5C0.490234 5.8146 5.91226 0.390625 12.5996 0.390625C19.287 0.390625 24.709 5.8146 24.709 12.5ZM12.9246 4.39453C10.2636 4.39453 8.56641 5.51548 7.23369 7.50771C7.06104 7.76582 7.1188 8.11392 7.36626 8.30156L9.06055 9.58623C9.3147 9.77896 9.67681 9.73311 9.87427 9.48262C10.7465 8.37627 11.3446 7.73472 12.6723 7.73472C13.6698 7.73472 14.9036 8.37671 14.9036 9.34399C14.9036 10.0752 14.3 10.4508 13.315 11.003C12.1664 11.6469 10.6465 12.4483 10.6465 14.4531V14.6484C10.6465 14.972 10.9088 15.2344 11.2324 15.2344H13.9668C14.2904 15.2344 14.5527 14.972 14.5527 14.6484V14.5833C14.5527 13.1936 18.6146 13.1357 18.6146 9.375C18.6146 6.54287 15.6768 4.39453 12.9246 4.39453ZM12.5996 16.5039C11.3611 16.5039 10.3535 17.5115 10.3535 18.75C10.3535 19.9885 11.3611 20.9961 12.5996 20.9961C13.8381 20.9961 14.8457 19.9885 14.8457 18.75C14.8457 17.5115 13.8381 16.5039 12.5996 16.5039Z" fill="#262626"/>
</svg>
