<svg width="26" height="25" viewBox="0 0 26 25" fill="none" xmlns="http://www.w3.org/2000/svg">
<path d="M23.1902 18.151C24.3838 16.9748 25.0999 15.4991 25.0999 13.8889C25.0999 10.4167 21.7796 7.54774 17.4523 7.03558C16.0851 4.53558 12.8733 2.77777 9.12768 2.77777C4.1407 2.77777 0.0999017 5.88541 0.0999017 9.72221C0.0999017 11.3281 0.816048 12.8038 2.00962 13.9844C1.34556 15.3168 0.3907 16.3498 0.373339 16.3672C0.0999017 16.658 0.0217767 17.0833 0.182367 17.4522C0.338617 17.8212 0.7032 18.0599 1.10251 18.0599C3.42455 18.0599 5.29955 17.1832 6.53653 16.3759C6.93584 16.467 7.34817 16.5365 7.76917 16.5885C9.13202 19.0799 12.3308 20.8333 16.0721 20.8333C16.9749 20.8333 17.843 20.7292 18.6676 20.5382C19.9046 21.3411 21.7752 22.2222 24.1016 22.2222C24.5009 22.2222 24.8612 21.9835 25.0218 21.6146C25.178 21.2457 25.1042 20.8203 24.8308 20.5295C24.8134 20.5165 23.8542 19.4835 23.1902 18.151ZM6.14157 14.145L5.39938 14.6267C4.7874 15.0217 4.1624 15.3342 3.52872 15.5555C3.64591 15.3516 3.7631 15.1345 3.87594 14.9132L4.54869 13.5634L3.4723 12.5C2.88636 11.9184 2.18323 10.9679 2.18323 9.72221C2.18323 7.08767 5.36466 4.8611 9.12768 4.8611C12.8907 4.8611 16.0721 7.08767 16.0721 9.72221C16.0721 12.3568 12.8907 14.5833 9.12768 14.5833C8.41153 14.5833 7.69539 14.5009 7.00094 14.3403L6.14157 14.145ZM21.7275 16.6667L20.6555 17.7257L21.3282 19.0755C21.441 19.2969 21.5582 19.5139 21.6754 19.7179C21.0417 19.4965 20.4167 19.184 19.8048 18.7891L19.0626 18.3073L18.1989 18.5069C17.5044 18.6675 16.7883 18.75 16.0721 18.75C13.7284 18.75 11.6364 17.8776 10.3733 16.5929C14.77 16.1241 18.1555 13.2335 18.1555 9.72221C18.1555 9.57465 18.1381 9.43142 18.1251 9.28819C20.9202 9.91753 23.0166 11.7535 23.0166 13.8889C23.0166 15.1345 22.3134 16.0851 21.7275 16.6667Z" fill="#262626"/>
</svg>
